<svg width="89" height="89" viewBox="0 0 89 89" fill="none" xmlns="http://www.w3.org/2000/svg">
<g clip-path="url(#clip0_2001_415)">
<path d="M0.17981 20.7904C0.0805036 9.74511 8.95394 0.710659 19.9992 0.611353L67.9973 0.17981C79.0425 0.0805036 88.0769 8.95394 88.1763 19.9992L88.6078 67.9973C88.7071 79.0425 79.8337 88.0769 68.7884 88.1763L20.7904 88.6078C9.74511 88.7071 0.710659 79.8337 0.611353 68.7884L0.17981 20.7904Z" fill="url(#paint0_linear_2001_415)"/>
<path d="M64.0188 31.4719C64.0188 33.0657 63.7961 34.4602 63.3508 35.6555C62.929 36.8274 62.3196 37.8352 61.5227 38.679C60.7258 39.5462 59.7649 40.2844 58.6399 40.8938C57.5383 41.5032 56.3079 42.0188 54.9485 42.4407V42.7923C58.3704 43.6594 61.0774 45.136 63.0696 47.2219C64.054 48.3001 64.8157 49.5423 65.3547 50.9485C65.9172 52.3548 66.1985 53.9368 66.1985 55.6946C66.1985 65.093 59.3313 69.7923 45.5969 69.7923H22.3938V65.9602H25.3469C26.5891 65.9602 27.5266 65.6438 28.1594 65.011C28.7922 64.3782 29.1086 63.136 29.1086 61.2844V26.7962C29.1086 25.0852 28.7805 23.8899 28.1243 23.2102C27.468 22.5305 26.5422 22.1907 25.3469 22.1907H22.3938V18.3938H43.4172C50.261 18.3938 55.4055 19.4485 58.8508 21.5579C62.2961 23.6673 64.0188 26.9719 64.0188 31.4719ZM43.0657 22.7884H40.4641V40.718H43.2063C46.4875 40.718 48.7844 39.9915 50.0969 38.5384C50.7766 37.7884 51.2454 36.8391 51.5032 35.6907C51.7844 34.5188 51.925 33.1126 51.925 31.4719C51.925 28.2141 51.2571 25.9524 49.9211 24.6868C48.5852 23.4212 46.3 22.7884 43.0657 22.7884ZM45.386 45.1126H40.4641V65.3977H45.2454C48.4563 65.3977 50.7297 64.6477 52.0657 63.1477C53.4016 61.6712 54.0696 59.1048 54.0696 55.4485C54.0696 53.6907 53.929 52.1673 53.6477 50.8782C53.3665 49.5657 52.886 48.4876 52.2063 47.6438C51.5266 46.8001 50.636 46.1673 49.5344 45.7454C48.4329 45.3235 47.05 45.1126 45.386 45.1126Z" fill="white"/>
</g>
<defs>
<linearGradient id="paint0_linear_2001_415" x1="88.3938" y1="0.393818" x2="0.393799" y2="88.3938" gradientUnits="userSpaceOnUse">
<stop stop-color="#9995FF"/>
<stop offset="1" stop-color="#165EFB"/>
</linearGradient>
<clipPath id="clip0_2001_415">
<rect width="88" height="88" fill="white" transform="translate(0 0.791163) rotate(-0.515124)"/>
</clipPath>
</defs>
</svg>
